<?xml version="1.0" standalone="no"?>
<!DOCTYPE svg PUBLIC "-//W3C//DTD SVG 20010904//EN"
 "http://www.w3.org/TR/2001/REC-SVG-20010904/DTD/svg10.dtd">
<svg version="1.0" xmlns="http://www.w3.org/2000/svg"
 width="512.000000pt" height="512.000000pt" viewBox="0 0 512.000000 512.000000"
 preserveAspectRatio="xMidYMid meet">
<metadata>
Created by potrace 1.14, written by Peter Selinger 2001-2017
</metadata>
<g transform="translate(0.000000,512.000000) scale(0.100000,-0.100000)"
fill="#000000" stroke="none">
<path d="M1209 4950 c-491 -55 -890 -400 -1008 -871 -86 -344 -17 -697 192
-984 51 -70 805 -833 2029 -2051 472 -470 662 -653 713 -686 532 -346 1222
-228 1595 273 307 412 306 989 -1 1399 -68 90 -2559 2581 -2669 2669 -237 189
-558 284 -851 251z m623 -470 c78 -24 210 -105 338 -208 139 -112 470 -446
769 -776 l262 -290 -183 -183 c-100 -101 -186 -183 -190 -183 -10 0 -1002 935
-1067 1006 -223 243 -277 434 -164 583 29 38 93 70 139 71 18 0 61 -9 96 -20z"/>
</g>
</svg>
